<?xml version="1.0" encoding="UTF-8"?><svg id="Layer_1" xmlns="http://www.w3.org/2000/svg" viewBox="0 0 350 150"><defs><style>.cls-1{fill:#d28d7b;}</style></defs><path class="cls-1" d="M71.69,37.21l-20.31,58.28c-.94,2.47-1.65,4.68-2.12,6.62-.47,1.94-.71,3.39-.71,4.33,0,1.65,.44,3.12,1.32,4.41,.88,1.3,2.38,1.94,4.5,1.94,3.18,0,6.62-1.21,10.33-3.62,3.71-2.41,7.33-5.5,10.86-9.27,3.53-3.77,6.77-7.97,9.71-12.63,2.94-4.65,5.24-9.27,6.89-13.86l12.54-36.2h12.36l-20.84,59.87c-.59,1.77-1.18,3.56-1.77,5.39-.59,1.83-.88,3.56-.88,5.21,0,1.41,.41,2.62,1.24,3.62,.82,1,2.06,1.5,3.71,1.5,2,0,3.91-.65,5.74-1.94,1.82-1.29,3.47-2.8,4.94-4.5,1.47-1.7,2.74-3.44,3.8-5.21,1.06-1.77,1.82-3.18,2.3-4.24l2.12,.88c-.47,.94-1.21,2.38-2.21,4.33-1,1.94-2.38,3.89-4.15,5.83-1.77,1.94-3.95,3.62-6.53,5.03-2.59,1.41-5.65,2.12-9.18,2.12-3.89,0-6.98-.79-9.27-2.38-2.3-1.59-3.44-4.27-3.44-8.04,0-2,.23-3.91,.71-5.74,.47-1.82,1.18-3.91,2.12-6.27l-.35-.35c-1.65,2.12-3.62,4.5-5.92,7.15-2.3,2.65-4.77,5.12-7.42,7.42-2.65,2.3-5.47,4.24-8.48,5.83s-6.09,2.38-9.27,2.38c-5.06,0-9.07-1.18-12.01-3.53-2.94-2.35-4.41-5.77-4.41-10.24,0-1.77,.41-3.85,1.24-6.27,.82-2.41,1.53-4.56,2.12-6.45l17.31-48.92h-15.72l.71-2.47h28.43Z"/><path class="cls-1" d="M146.22,39.68l.71-2.47h27.9l-7.24,21.72h.35c11.42-15.19,22.19-22.78,32.32-22.78,4.94,0,8.86,1.32,11.74,3.97,2.88,2.65,4.33,5.92,4.33,9.8,0,2-.33,3.97-.97,5.92-.65,1.94-1.44,4.27-2.38,6.98l-11.48,32.67c-.71,2-1.36,3.97-1.94,5.92-.59,1.94-.88,3.86-.88,5.74,0,1.41,.29,2.71,.88,3.89,.59,1.18,1.82,1.77,3.71,1.77,2.12,0,4.06-.59,5.83-1.77,1.77-1.18,3.38-2.59,4.86-4.24,1.47-1.65,2.74-3.38,3.8-5.21,1.06-1.82,1.88-3.38,2.47-4.68l1.94,.88c-.59,1.18-1.41,2.74-2.47,4.68s-2.45,3.86-4.15,5.74c-1.71,1.88-3.8,3.5-6.27,4.86-2.47,1.35-5.42,2.03-8.83,2.03-3.77,0-6.95-.82-9.54-2.47-2.59-1.65-3.89-4.35-3.89-8.12,0-1.53,.2-3.12,.62-4.77,.41-1.65,.91-3.41,1.5-5.3l14.84-42.21c.94-2.83,1.41-5.18,1.41-7.06,0-1.53-.5-3-1.5-4.41-1-1.41-2.8-2.12-5.39-2.12s-5.59,.97-9.01,2.91c-3.42,1.94-6.83,4.59-10.24,7.95-3.42,3.36-6.62,7.3-9.62,11.83-3,4.53-5.45,9.45-7.33,14.75l-13.24,36.91h-12.19l25.43-73.29h-16.07Z"/><path class="cls-1" d="M298.62,100.16c-1.41,2.18-3.36,4.36-5.83,6.53-2.47,2.18-5.51,4.12-9.09,5.83-3.59,1.7-7.92,2.56-12.98,2.56s-9.33-.82-12.8-2.47c-3.47-1.65-6.3-3.77-8.48-6.36-2.18-2.59-3.77-5.44-4.77-8.57-1-3.12-1.5-6.15-1.5-9.09,0-5.89,1.44-11.98,4.33-18.28,2.88-6.3,6.65-12.07,11.3-17.31,4.65-5.24,9.92-9.56,15.81-12.98,5.89-3.41,11.89-5.12,18.01-5.12,2.35,0,4.71,.26,7.06,.79,2.35,.53,4.47,1.32,6.36,2.38,1.88,1.06,3.41,2.41,4.59,4.06,1.18,1.65,1.77,3.65,1.77,6,0,3.18-.86,5.98-2.56,8.39-1.71,2.41-3.91,4.48-6.62,6.18-2.71,1.71-5.68,3.15-8.92,4.33-3.24,1.18-6.39,2.09-9.45,2.74-3.06,.65-5.86,1.12-8.39,1.41-2.53,.29-4.39,.44-5.56,.44-2,0-3.95-.06-5.83-.18-1.88-.12-3.53-.29-4.94-.53-1.3,3.77-2.38,7.5-3.27,11.21-.88,3.71-1.32,7.62-1.32,11.74,0,6.36,1.65,11.1,4.94,14.22,3.3,3.12,7.47,4.68,12.54,4.68,3.77,0,7.09-.73,9.98-2.21,2.88-1.47,5.41-3.21,7.59-5.21,2.18-2,4-4.03,5.47-6.09,1.47-2.06,2.68-3.68,3.62-4.86l2.12,1.24c-.71,.82-1.77,2.33-3.18,4.5Zm.71-60.31c-1.41-1.65-3.77-2.47-7.06-2.47-3.65,0-7.15,1.06-10.51,3.18-3.36,2.12-6.39,4.74-9.09,7.86-2.71,3.12-5.06,6.48-7.06,10.07-2,3.59-3.53,6.92-4.59,9.98,2.71,.47,5.71,.71,9.01,.71,4.24,0,8.24-.65,12.01-1.94,3.77-1.29,7.09-3,9.98-5.12,2.88-2.12,5.18-4.59,6.89-7.42,1.7-2.83,2.56-5.77,2.56-8.83,0-2.35-.71-4.35-2.12-6Z"/></svg>